<svg width="97" height="17" viewBox="0 0 97 17" fill="none" xmlns="http://www.w3.org/2000/svg">
<path d="M39.4547 11.2578H41.6031C41.5458 12.0182 41.3349 12.6927 40.9703 13.2812C40.6057 13.8646 40.0979 14.3229 39.4469 14.6562C38.7958 14.9896 38.0068 15.1562 37.0797 15.1562C36.3661 15.1562 35.7229 15.0312 35.15 14.7812C34.5823 14.526 34.0953 14.1641 33.6891 13.6953C33.288 13.2214 32.9807 12.6536 32.7672 11.9922C32.5536 11.3255 32.4469 10.5781 32.4469 9.75V8.88281C32.4469 8.05469 32.5563 7.30729 32.775 6.64062C32.9938 5.97396 33.3063 5.40625 33.7125 4.9375C34.124 4.46354 34.6161 4.09896 35.1891 3.84375C35.7672 3.58854 36.413 3.46094 37.1266 3.46094C38.0536 3.46094 38.8375 3.63281 39.4781 3.97656C40.1188 4.3151 40.6161 4.78125 40.9703 5.375C41.3245 5.96875 41.538 6.65104 41.6109 7.42188H39.4625C39.4208 6.94271 39.3167 6.53646 39.15 6.20312C38.9885 5.86979 38.7438 5.61719 38.4156 5.44531C38.0927 5.26823 37.663 5.17969 37.1266 5.17969C36.7099 5.17969 36.3427 5.25781 36.025 5.41406C35.7125 5.57031 35.4521 5.80469 35.2438 6.11719C35.0354 6.42448 34.8792 6.8099 34.775 7.27344C34.6708 7.73177 34.6188 8.26302 34.6188 8.86719V9.75C34.6188 10.3281 34.6656 10.8464 34.7594 11.3047C34.8531 11.763 34.999 12.151 35.1969 12.4688C35.3948 12.7865 35.65 13.0286 35.9625 13.1953C36.275 13.362 36.6474 13.4453 37.0797 13.4453C37.6057 13.4453 38.0328 13.362 38.3609 13.1953C38.6943 13.0286 38.9469 12.7839 39.1188 12.4609C39.2958 12.138 39.4078 11.737 39.4547 11.2578ZM41.9438 10.8594V10.6953C41.9438 10.0755 42.0323 9.50521 42.2094 8.98438C42.3865 8.45833 42.6443 8.0026 42.9828 7.61719C43.3214 7.23177 43.7354 6.93229 44.225 6.71875C44.7146 6.5 45.2719 6.39062 45.8969 6.39062C46.5323 6.39062 47.0948 6.5 47.5844 6.71875C48.0792 6.93229 48.4958 7.23177 48.8344 7.61719C49.1729 8.0026 49.4307 8.45833 49.6078 8.98438C49.7849 9.50521 49.8734 10.0755 49.8734 10.6953V10.8594C49.8734 11.474 49.7849 12.0443 49.6078 12.5703C49.4307 13.0911 49.1729 13.5469 48.8344 13.9375C48.4958 14.3229 48.0818 14.6224 47.5922 14.8359C47.1026 15.0495 46.5427 15.1562 45.9125 15.1562C45.2875 15.1562 44.7276 15.0495 44.2328 14.8359C43.738 14.6224 43.3214 14.3229 42.9828 13.9375C42.6443 13.5469 42.3865 13.0911 42.2094 12.5703C42.0323 12.0443 41.9438 11.474 41.9438 10.8594ZM44.0063 10.6953V10.8594C44.0063 11.2292 44.0427 11.5755 44.1156 11.8984C44.1885 12.2214 44.3005 12.5052 44.4516 12.75C44.6026 12.9948 44.7979 13.1875 45.0375 13.3281C45.2823 13.4635 45.574 13.5312 45.9125 13.5312C46.2458 13.5312 46.5323 13.4635 46.7719 13.3281C47.0115 13.1875 47.2068 12.9948 47.3578 12.75C47.5141 12.5052 47.6286 12.2214 47.7016 11.8984C47.7745 11.5755 47.8109 11.2292 47.8109 10.8594V10.6953C47.8109 10.3307 47.7745 9.98958 47.7016 9.67188C47.6286 9.34896 47.5141 9.0651 47.3578 8.82031C47.2068 8.57031 47.0089 8.375 46.7641 8.23438C46.5245 8.08854 46.2354 8.01562 45.8969 8.01562C45.5635 8.01562 45.2771 8.08854 45.0375 8.23438C44.7979 8.375 44.6026 8.57031 44.4516 8.82031C44.3005 9.0651 44.1885 9.34896 44.1156 9.67188C44.0427 9.98958 44.0063 10.3307 44.0063 10.6953ZM55.6438 13.2031V3H57.7219V15H55.8469L55.6438 13.2031ZM50.2141 10.875V10.7109C50.2141 10.0651 50.287 9.47917 50.4328 8.95312C50.5839 8.42188 50.8026 7.96615 51.0891 7.58594C51.3755 7.20573 51.7219 6.91146 52.1281 6.70312C52.5396 6.49479 53.0057 6.39062 53.5266 6.39062C54.0318 6.39062 54.4719 6.49219 54.8469 6.69531C55.2271 6.89844 55.55 7.1875 55.8156 7.5625C56.0865 7.9375 56.3026 8.38281 56.4641 8.89844C56.6255 9.40885 56.7427 9.97135 56.8156 10.5859V11.0312C56.7427 11.6302 56.6255 12.1797 56.4641 12.6797C56.3026 13.1797 56.0865 13.6172 55.8156 13.9922C55.55 14.362 55.2271 14.6484 54.8469 14.8516C54.4667 15.0547 54.0214 15.1562 53.5109 15.1562C52.9953 15.1562 52.5318 15.0495 52.1203 14.8359C51.7141 14.6224 51.3677 14.3229 51.0813 13.9375C50.8 13.5521 50.5839 13.099 50.4328 12.5781C50.287 12.0573 50.2141 11.4896 50.2141 10.875ZM52.2844 10.7109V10.875C52.2844 11.2396 52.3156 11.5807 52.3781 11.8984C52.4406 12.2161 52.5422 12.4974 52.6828 12.7422C52.8234 12.9818 53.0031 13.1693 53.2219 13.3047C53.4458 13.4401 53.7167 13.5078 54.0344 13.5078C54.4406 13.5078 54.774 13.4193 55.0344 13.2422C55.3 13.0599 55.5057 12.8125 55.6516 12.5C55.7974 12.1823 55.8911 11.8255 55.9328 11.4297V10.2031C55.912 9.89062 55.8573 9.60156 55.7688 9.33594C55.6854 9.07031 55.5656 8.84115 55.4094 8.64844C55.2583 8.45573 55.0708 8.30469 54.8469 8.19531C54.6229 8.08594 54.3573 8.03125 54.05 8.03125C53.7323 8.03125 53.4615 8.10156 53.2375 8.24219C53.0135 8.3776 52.8313 8.56771 52.6906 8.8125C52.55 9.05729 52.4458 9.34115 52.3781 9.66406C52.3156 9.98698 52.2844 10.3359 52.2844 10.7109ZM62.5859 15.1562C61.9453 15.1562 61.3698 15.0521 60.8594 14.8438C60.349 14.6354 59.9141 14.3464 59.5547 13.9766C59.2005 13.6016 58.9271 13.1667 58.7344 12.6719C58.5469 12.1719 58.4531 11.6354 58.4531 11.0625V10.75C58.4531 10.099 58.5469 9.50781 58.7344 8.97656C58.9219 8.4401 59.1875 7.97917 59.5313 7.59375C59.875 7.20833 60.2865 6.91146 60.7656 6.70312C61.2448 6.49479 61.7734 6.39062 62.3516 6.39062C62.9505 6.39062 63.4792 6.49219 63.9375 6.69531C64.3958 6.89323 64.7786 7.17448 65.0859 7.53906C65.3932 7.90365 65.625 8.34115 65.7813 8.85156C65.9375 9.35677 66.0156 9.91667 66.0156 10.5312V11.3984H59.3906V9.97656H63.9844V9.82031C63.974 9.49219 63.9115 9.19271 63.7969 8.92188C63.6823 8.64583 63.5052 8.42708 63.2656 8.26562C63.026 8.09896 62.7161 8.01562 62.3359 8.01562C62.0286 8.01562 61.7604 8.08333 61.5313 8.21875C61.3073 8.34896 61.1198 8.53646 60.9688 8.78125C60.8229 9.02083 60.7135 9.30729 60.6406 9.64062C60.5677 9.97396 60.5313 10.3438 60.5313 10.75V11.0625C60.5313 11.4167 60.5781 11.7448 60.6719 12.0469C60.7708 12.349 60.9141 12.612 61.1016 12.8359C61.2943 13.0547 61.5234 13.2266 61.7891 13.3516C62.0599 13.4714 62.3672 13.5312 62.7109 13.5312C63.1432 13.5312 63.5339 13.4479 63.8828 13.2812C64.237 13.1094 64.5443 12.8568 64.8047 12.5234L65.8438 13.6016C65.6667 13.862 65.4271 14.112 65.125 14.3516C64.8281 14.5911 64.4688 14.7865 64.0469 14.9375C63.625 15.0833 63.138 15.1562 62.5859 15.1562ZM72.65 3.625V15H70.5016V3.625H72.65ZM77.2359 8.53906V10.2344H72.0875V8.53906H77.2359ZM77.8375 3.625V5.32031H72.0875V3.625H77.8375ZM80.5297 3V15H78.4594V3H80.5297ZM86.7297 12.9922V6.54688H88.8078V15H86.8547L86.7297 12.9922ZM86.9953 11.2422L87.6359 11.2266C87.6359 11.7943 87.5734 12.3177 87.4484 12.7969C87.3234 13.276 87.1281 13.6927 86.8625 14.0469C86.6021 14.3958 86.2714 14.6693 85.8703 14.8672C85.4693 15.0599 84.9953 15.1562 84.4484 15.1562C84.0318 15.1562 83.6516 15.099 83.3078 14.9844C82.9641 14.8646 82.6672 14.6797 82.4172 14.4297C82.1724 14.1745 81.9823 13.849 81.8469 13.4531C81.7115 13.0521 81.6438 12.5703 81.6438 12.0078V6.54688H83.7063V12.0234C83.7063 12.3047 83.7375 12.5391 83.8 12.7266C83.8677 12.9141 83.9589 13.0677 84.0734 13.1875C84.1932 13.3021 84.3313 13.3854 84.4875 13.4375C84.649 13.4844 84.8208 13.5078 85.0031 13.5078C85.5031 13.5078 85.8964 13.4089 86.1828 13.2109C86.4745 13.0078 86.6828 12.737 86.8078 12.3984C86.9328 12.0547 86.9953 11.6693 86.9953 11.2422ZM91.4531 6.54688L92.9609 9.23438L94.4922 6.54688H96.7344L94.25 10.6875L96.8359 15H94.5938L92.9766 12.1797L91.3516 15H89.1094L91.6875 10.6875L89.2188 6.54688H91.4531Z" fill="white"/>
<path d="M66.6844 13.9922C66.6844 13.6797 66.7911 13.4167 67.0047 13.2031C67.2182 12.9896 67.5073 12.8828 67.8719 12.8828C68.2365 12.8828 68.5255 12.9896 68.7391 13.2031C68.9526 13.4167 69.0594 13.6797 69.0594 13.9922C69.0594 14.2995 68.9526 14.5599 68.7391 14.7734C68.5255 14.9818 68.2365 15.0859 67.8719 15.0859C67.5073 15.0859 67.2182 14.9818 67.0047 14.7734C66.7911 14.5599 66.6844 14.2995 66.6844 13.9922Z" fill="#FF0080"/>
<path d="M6.91672 1L0 9L6.91672 16.9986L8.5522 14.4416L3.89128 8.99864L8.5522 3.55569L6.91672 1ZM9.94359 16.8076H12.9791L17.8051 1.14736H14.7682L9.94359 16.8076ZM21.0833 1L19.4478 3.55705L24.1087 9L19.4478 14.4429L21.0833 17L28 9.00137L21.0833 1Z" fill="url(#paint0_linear_103_5)"/>
<defs>
<linearGradient id="paint0_linear_103_5" x1="-3.5" y1="16.9938" x2="27.9133" y2="0.831432" gradientUnits="userSpaceOnUse">
<stop offset="0.0106006" stop-color="#7928CA"/>
<stop offset="1" stop-color="#FF0080"/>
</linearGradient>
</defs>
</svg>
