<svg width="100" height="16" viewBox="0 0 100 16" fill="none" xmlns="http://www.w3.org/2000/svg">
<path d="M7.90482 0L0 8L7.90482 15.9986L9.77395 13.4416L4.44718 7.99864L9.77395 2.55569L7.90482 0ZM11.3641 15.8076H14.8332L20.3487 0.147365H16.8779L11.3641 15.8076ZM24.0952 0L22.2261 2.55705L27.5528 8L22.2261 13.4429L24.0952 16L32 8.00137L24.0952 0Z" fill="url(#paint0_linear_102_27)"/>
<path d="M42.4547 11.2578H44.6031C44.5458 12.0182 44.3349 12.6927 43.9703 13.2812C43.6057 13.8646 43.0979 14.3229 42.4469 14.6562C41.7958 14.9896 41.0068 15.1562 40.0797 15.1562C39.3661 15.1562 38.7229 15.0312 38.15 14.7812C37.5823 14.526 37.0953 14.1641 36.6891 13.6953C36.288 13.2214 35.9807 12.6536 35.7672 11.9922C35.5536 11.3255 35.4469 10.5781 35.4469 9.75V8.88281C35.4469 8.05469 35.5563 7.30729 35.775 6.64062C35.9938 5.97396 36.3063 5.40625 36.7125 4.9375C37.124 4.46354 37.6161 4.09896 38.1891 3.84375C38.7672 3.58854 39.413 3.46094 40.1266 3.46094C41.0536 3.46094 41.8375 3.63281 42.4781 3.97656C43.1188 4.3151 43.6161 4.78125 43.9703 5.375C44.3245 5.96875 44.538 6.65104 44.6109 7.42188H42.4625C42.4208 6.94271 42.3167 6.53646 42.15 6.20312C41.9885 5.86979 41.7438 5.61719 41.4156 5.44531C41.0927 5.26823 40.663 5.17969 40.1266 5.17969C39.7099 5.17969 39.3427 5.25781 39.025 5.41406C38.7125 5.57031 38.4521 5.80469 38.2438 6.11719C38.0354 6.42448 37.8792 6.8099 37.775 7.27344C37.6708 7.73177 37.6188 8.26302 37.6188 8.86719V9.75C37.6188 10.3281 37.6656 10.8464 37.7594 11.3047C37.8531 11.763 37.999 12.151 38.1969 12.4688C38.3948 12.7865 38.65 13.0286 38.9625 13.1953C39.275 13.362 39.6474 13.4453 40.0797 13.4453C40.6057 13.4453 41.0328 13.362 41.3609 13.1953C41.6943 13.0286 41.9469 12.7839 42.1188 12.4609C42.2958 12.138 42.4078 11.737 42.4547 11.2578ZM44.9438 10.8594V10.6953C44.9438 10.0755 45.0323 9.50521 45.2094 8.98438C45.3865 8.45833 45.6443 8.0026 45.9828 7.61719C46.3214 7.23177 46.7354 6.93229 47.225 6.71875C47.7146 6.5 48.2719 6.39062 48.8969 6.39062C49.5323 6.39062 50.0948 6.5 50.5844 6.71875C51.0792 6.93229 51.4958 7.23177 51.8344 7.61719C52.1729 8.0026 52.4307 8.45833 52.6078 8.98438C52.7849 9.50521 52.8734 10.0755 52.8734 10.6953V10.8594C52.8734 11.474 52.7849 12.0443 52.6078 12.5703C52.4307 13.0911 52.1729 13.5469 51.8344 13.9375C51.4958 14.3229 51.0818 14.6224 50.5922 14.8359C50.1026 15.0495 49.5427 15.1562 48.9125 15.1562C48.2875 15.1562 47.7276 15.0495 47.2328 14.8359C46.738 14.6224 46.3214 14.3229 45.9828 13.9375C45.6443 13.5469 45.3865 13.0911 45.2094 12.5703C45.0323 12.0443 44.9438 11.474 44.9438 10.8594ZM47.0063 10.6953V10.8594C47.0063 11.2292 47.0427 11.5755 47.1156 11.8984C47.1885 12.2214 47.3005 12.5052 47.4516 12.75C47.6026 12.9948 47.7979 13.1875 48.0375 13.3281C48.2823 13.4635 48.574 13.5312 48.9125 13.5312C49.2458 13.5312 49.5323 13.4635 49.7719 13.3281C50.0115 13.1875 50.2068 12.9948 50.3578 12.75C50.5141 12.5052 50.6286 12.2214 50.7016 11.8984C50.7745 11.5755 50.8109 11.2292 50.8109 10.8594V10.6953C50.8109 10.3307 50.7745 9.98958 50.7016 9.67188C50.6286 9.34896 50.5141 9.0651 50.3578 8.82031C50.2068 8.57031 50.0089 8.375 49.7641 8.23438C49.5245 8.08854 49.2354 8.01562 48.8969 8.01562C48.5635 8.01562 48.2771 8.08854 48.0375 8.23438C47.7979 8.375 47.6026 8.57031 47.4516 8.82031C47.3005 9.0651 47.1885 9.34896 47.1156 9.67188C47.0427 9.98958 47.0063 10.3307 47.0063 10.6953ZM58.6438 13.2031V3H60.7219V15H58.8469L58.6438 13.2031ZM53.2141 10.875V10.7109C53.2141 10.0651 53.287 9.47917 53.4328 8.95312C53.5839 8.42188 53.8026 7.96615 54.0891 7.58594C54.3755 7.20573 54.7219 6.91146 55.1281 6.70312C55.5396 6.49479 56.0057 6.39062 56.5266 6.39062C57.0318 6.39062 57.4719 6.49219 57.8469 6.69531C58.2271 6.89844 58.55 7.1875 58.8156 7.5625C59.0865 7.9375 59.3026 8.38281 59.4641 8.89844C59.6255 9.40885 59.7427 9.97135 59.8156 10.5859V11.0312C59.7427 11.6302 59.6255 12.1797 59.4641 12.6797C59.3026 13.1797 59.0865 13.6172 58.8156 13.9922C58.55 14.362 58.2271 14.6484 57.8469 14.8516C57.4667 15.0547 57.0214 15.1562 56.5109 15.1562C55.9953 15.1562 55.5318 15.0495 55.1203 14.8359C54.7141 14.6224 54.3677 14.3229 54.0813 13.9375C53.8 13.5521 53.5839 13.099 53.4328 12.5781C53.287 12.0573 53.2141 11.4896 53.2141 10.875ZM55.2844 10.7109V10.875C55.2844 11.2396 55.3156 11.5807 55.3781 11.8984C55.4406 12.2161 55.5422 12.4974 55.6828 12.7422C55.8234 12.9818 56.0031 13.1693 56.2219 13.3047C56.4458 13.4401 56.7167 13.5078 57.0344 13.5078C57.4406 13.5078 57.774 13.4193 58.0344 13.2422C58.3 13.0599 58.5057 12.8125 58.6516 12.5C58.7974 12.1823 58.8911 11.8255 58.9328 11.4297V10.2031C58.912 9.89062 58.8573 9.60156 58.7688 9.33594C58.6854 9.07031 58.5656 8.84115 58.4094 8.64844C58.2583 8.45573 58.0708 8.30469 57.8469 8.19531C57.6229 8.08594 57.3573 8.03125 57.05 8.03125C56.7323 8.03125 56.4615 8.10156 56.2375 8.24219C56.0135 8.3776 55.8313 8.56771 55.6906 8.8125C55.55 9.05729 55.4458 9.34115 55.3781 9.66406C55.3156 9.98698 55.2844 10.3359 55.2844 10.7109ZM65.5859 15.1562C64.9453 15.1562 64.3698 15.0521 63.8594 14.8438C63.349 14.6354 62.9141 14.3464 62.5547 13.9766C62.2005 13.6016 61.9271 13.1667 61.7344 12.6719C61.5469 12.1719 61.4531 11.6354 61.4531 11.0625V10.75C61.4531 10.099 61.5469 9.50781 61.7344 8.97656C61.9219 8.4401 62.1875 7.97917 62.5313 7.59375C62.875 7.20833 63.2865 6.91146 63.7656 6.70312C64.2448 6.49479 64.7734 6.39062 65.3516 6.39062C65.9505 6.39062 66.4792 6.49219 66.9375 6.69531C67.3958 6.89323 67.7786 7.17448 68.0859 7.53906C68.3932 7.90365 68.625 8.34115 68.7813 8.85156C68.9375 9.35677 69.0156 9.91667 69.0156 10.5312V11.3984H62.3906V9.97656H66.9844V9.82031C66.974 9.49219 66.9115 9.19271 66.7969 8.92188C66.6823 8.64583 66.5052 8.42708 66.2656 8.26562C66.026 8.09896 65.7161 8.01562 65.3359 8.01562C65.0286 8.01562 64.7604 8.08333 64.5313 8.21875C64.3073 8.34896 64.1198 8.53646 63.9688 8.78125C63.8229 9.02083 63.7135 9.30729 63.6406 9.64062C63.5677 9.97396 63.5313 10.3438 63.5313 10.75V11.0625C63.5313 11.4167 63.5781 11.7448 63.6719 12.0469C63.7708 12.349 63.9141 12.612 64.1016 12.8359C64.2943 13.0547 64.5234 13.2266 64.7891 13.3516C65.0599 13.4714 65.3672 13.5312 65.7109 13.5312C66.1432 13.5312 66.5339 13.4479 66.8828 13.2812C67.237 13.1094 67.5443 12.8568 67.8047 12.5234L68.8438 13.6016C68.6667 13.862 68.4271 14.112 68.125 14.3516C67.8281 14.5911 67.4688 14.7865 67.0469 14.9375C66.625 15.0833 66.138 15.1562 65.5859 15.1562ZM75.65 3.625V15H73.5016V3.625H75.65ZM80.2359 8.53906V10.2344H75.0875V8.53906H80.2359ZM80.8375 3.625V5.32031H75.0875V3.625H80.8375ZM83.5297 3V15H81.4594V3H83.5297ZM89.7297 12.9922V6.54688H91.8078V15H89.8547L89.7297 12.9922ZM89.9953 11.2422L90.6359 11.2266C90.6359 11.7943 90.5734 12.3177 90.4484 12.7969C90.3234 13.276 90.1281 13.6927 89.8625 14.0469C89.6021 14.3958 89.2714 14.6693 88.8703 14.8672C88.4693 15.0599 87.9953 15.1562 87.4484 15.1562C87.0318 15.1562 86.6516 15.099 86.3078 14.9844C85.9641 14.8646 85.6672 14.6797 85.4172 14.4297C85.1724 14.1745 84.9823 13.849 84.8469 13.4531C84.7115 13.0521 84.6438 12.5703 84.6438 12.0078V6.54688H86.7063V12.0234C86.7063 12.3047 86.7375 12.5391 86.8 12.7266C86.8677 12.9141 86.9589 13.0677 87.0734 13.1875C87.1932 13.3021 87.3313 13.3854 87.4875 13.4375C87.649 13.4844 87.8208 13.5078 88.0031 13.5078C88.5031 13.5078 88.8964 13.4089 89.1828 13.2109C89.4745 13.0078 89.6828 12.737 89.8078 12.3984C89.9328 12.0547 89.9953 11.6693 89.9953 11.2422ZM94.4531 6.54688L95.9609 9.23438L97.4922 6.54688H99.7344L97.25 10.6875L99.8359 15H97.5938L95.9766 12.1797L94.3516 15H92.1094L94.6875 10.6875L92.2188 6.54688H94.4531Z" fill="white"/>
<path d="M69.6844 13.9922C69.6844 13.6797 69.7911 13.4167 70.0047 13.2031C70.2182 12.9896 70.5073 12.8828 70.8719 12.8828C71.2365 12.8828 71.5255 12.9896 71.7391 13.2031C71.9526 13.4167 72.0594 13.6797 72.0594 13.9922C72.0594 14.2995 71.9526 14.5599 71.7391 14.7734C71.5255 14.9818 71.2365 15.0859 70.8719 15.0859C70.5073 15.0859 70.2182 14.9818 70.0047 14.7734C69.7911 14.5599 69.6844 14.2995 69.6844 13.9922Z" fill="#FF0080"/>
<defs>
<linearGradient id="paint0_linear_102_27" x1="-4" y1="15.9938" x2="29.7391" y2="-3.84506" gradientUnits="userSpaceOnUse">
<stop offset="0.0106006" stop-color="#7928CA"/>
<stop offset="1" stop-color="#FF0080"/>
</linearGradient>
</defs>
</svg>
