<svg width="110" height="32" viewBox="0 0 110 32" fill="none" xmlns="http://www.w3.org/2000/svg">
<path d="M16.5 3C13.1868 3.00661 10.0112 4.32569 7.66846 6.66846C5.32569 9.01124 4.00661 12.1868 4 15.5V26.0375C4 26.558 4.20676 27.0572 4.5748 27.4252C4.94284 27.7932 5.44201 28 5.9625 28H16.5C19.8152 28 22.9946 26.683 25.3388 24.3388C27.683 21.9946 29 18.8152 29 15.5C29 12.1848 27.683 9.00537 25.3388 6.66117C22.9946 4.31696 19.8152 3 16.5 3V3ZM10.5 17.5C10.2033 17.5 9.91332 17.412 9.66665 17.2472C9.41997 17.0824 9.22771 16.8481 9.11418 16.574C9.00065 16.2999 8.97094 15.9983 9.02882 15.7074C9.0867 15.4164 9.22956 15.1491 9.43934 14.9393C9.64912 14.7296 9.91639 14.5867 10.2074 14.5288C10.4983 14.4709 10.7999 14.5006 11.074 14.6142C11.3481 14.7277 11.5824 14.92 11.7472 15.1666C11.912 15.4133 12 15.7033 12 16C12 16.3978 11.842 16.7794 11.5607 17.0607C11.2794 17.342 10.8978 17.5 10.5 17.5ZM16.5 17.5C16.2033 17.5 15.9133 17.412 15.6666 17.2472C15.42 17.0824 15.2277 16.8481 15.1142 16.574C15.0006 16.2999 14.9709 15.9983 15.0288 15.7074C15.0867 15.4164 15.2296 15.1491 15.4393 14.9393C15.6491 14.7296 15.9164 14.5867 16.2074 14.5288C16.4983 14.4709 16.7999 14.5006 17.074 14.6142C17.3481 14.7277 17.5824 14.92 17.7472 15.1666C17.912 15.4133 18 15.7033 18 16C18 16.3978 17.842 16.7794 17.5607 17.0607C17.2794 17.342 16.8978 17.5 16.5 17.5ZM22.5 17.5C22.2033 17.5 21.9133 17.412 21.6666 17.2472C21.42 17.0824 21.2277 16.8481 21.1142 16.574C21.0007 16.2999 20.9709 15.9983 21.0288 15.7074C21.0867 15.4164 21.2296 15.1491 21.4393 14.9393C21.6491 14.7296 21.9164 14.5867 22.2074 14.5288C22.4983 14.4709 22.7999 14.5006 23.074 14.6142C23.3481 14.7277 23.5824 14.92 23.7472 15.1666C23.912 15.4133 24 15.7033 24 16C24 16.3978 23.842 16.7794 23.5607 17.0607C23.2794 17.342 22.8978 17.5 22.5 17.5Z" fill="#6366F1"/>
<path d="M16.5 17.5C17.3284 17.5 18 16.8284 18 16C18 15.1716 17.3284 14.5 16.5 14.5C15.6716 14.5 15 15.1716 15 16C15 16.8284 15.6716 17.5 16.5 17.5Z" fill="white"/>
<path d="M10.5 17.5C11.3284 17.5 12 16.8284 12 16C12 15.1716 11.3284 14.5 10.5 14.5C9.67157 14.5 9 15.1716 9 16C9 16.8284 9.67157 17.5 10.5 17.5Z" fill="white"/>
<path d="M22.5 17.5C23.3284 17.5 24 16.8284 24 16C24 15.1716 23.3284 14.5 22.5 14.5C21.6716 14.5 21 15.1716 21 16C21 16.8284 21.6716 17.5 22.5 17.5Z" fill="white"/>
<path d="M40.4418 11.7727V20.5H38.8608V11.7727H40.4418ZM43.6282 16.6648V20.5H42.0856V13.9545H43.56V15.0668H43.6367C43.7873 14.7003 44.0273 14.4091 44.3569 14.1932C44.6893 13.9773 45.0998 13.8693 45.5884 13.8693C46.0401 13.8693 46.4336 13.9659 46.7688 14.1591C47.1069 14.3523 47.3683 14.6321 47.5529 14.9986C47.7404 15.3651 47.8327 15.8097 47.8299 16.3324V20.5H46.2873V16.571C46.2873 16.1335 46.1737 15.7912 45.9464 15.544C45.7219 15.2969 45.4109 15.1733 45.0131 15.1733C44.7433 15.1733 44.5032 15.233 44.293 15.3523C44.0856 15.4687 43.9222 15.6378 43.8029 15.8594C43.6864 16.081 43.6282 16.3494 43.6282 16.6648ZM52.6665 13.9545V15.1477H48.9038V13.9545H52.6665ZM49.8327 12.3864H51.3754V18.5312C51.3754 18.7386 51.4066 18.8977 51.4691 19.0085C51.5344 19.1165 51.6197 19.1903 51.7248 19.2301C51.8299 19.2699 51.9464 19.2898 52.0742 19.2898C52.1708 19.2898 52.2589 19.2827 52.3384 19.2685C52.4208 19.2543 52.4833 19.2415 52.5259 19.2301L52.7859 20.4361C52.7035 20.4645 52.5856 20.4957 52.4322 20.5298C52.2816 20.5639 52.0969 20.5838 51.8782 20.5895C51.4918 20.6009 51.1438 20.5426 50.8342 20.4148C50.5245 20.2841 50.2788 20.0824 50.0969 19.8097C49.918 19.5369 49.8299 19.196 49.8327 18.7869V12.3864ZM56.7841 20.6278C56.1278 20.6278 55.5611 20.4915 55.0838 20.2188C54.6094 19.9432 54.2443 19.554 53.9886 19.0511C53.733 18.5455 53.6051 17.9503 53.6051 17.2656C53.6051 16.5923 53.733 16.0014 53.9886 15.4929C54.2472 14.9815 54.608 14.5838 55.071 14.2997C55.5341 14.0128 56.0781 13.8693 56.7031 13.8693C57.1065 13.8693 57.4872 13.9347 57.8452 14.0653C58.206 14.1932 58.5241 14.392 58.7997 14.6619C59.0781 14.9318 59.2969 15.2756 59.456 15.6932C59.6151 16.108 59.6946 16.6023 59.6946 17.1761V17.6491H54.3295V16.6094H58.2159C58.2131 16.3139 58.1491 16.0511 58.0241 15.821C57.8991 15.5881 57.7244 15.4048 57.5 15.2713C57.2784 15.1378 57.0199 15.071 56.7244 15.071C56.4091 15.071 56.1321 15.1477 55.8935 15.3011C55.6548 15.4517 55.4688 15.6506 55.3352 15.8977C55.2045 16.142 55.1378 16.4105 55.1349 16.7031V17.6108C55.1349 17.9915 55.2045 18.3182 55.3438 18.5909C55.483 18.8608 55.6776 19.0682 55.9276 19.2131C56.1776 19.3551 56.4702 19.4261 56.8054 19.4261C57.0298 19.4261 57.233 19.3949 57.4148 19.3324C57.5966 19.267 57.7543 19.1719 57.8878 19.0469C58.0213 18.9219 58.1222 18.767 58.1903 18.5824L59.6307 18.7443C59.5398 19.125 59.3665 19.4574 59.1108 19.7415C58.858 20.0227 58.5341 20.2415 58.1392 20.3977C57.7443 20.5511 57.2926 20.6278 56.7841 20.6278ZM62.5423 11.7727V20.5H60.9996V11.7727H62.5423ZM65.6712 11.7727V20.5H64.1286V11.7727H65.6712ZM67.2575 20.5V13.9545H68.8001V20.5H67.2575ZM68.033 13.0256C67.7887 13.0256 67.5785 12.9446 67.4023 12.7827C67.2262 12.6179 67.1381 12.4205 67.1381 12.1903C67.1381 11.9574 67.2262 11.7599 67.4023 11.598C67.5785 11.4332 67.7887 11.3509 68.033 11.3509C68.2802 11.3509 68.4904 11.4332 68.6637 11.598C68.8398 11.7599 68.9279 11.9574 68.9279 12.1903C68.9279 12.4205 68.8398 12.6179 68.6637 12.7827C68.4904 12.9446 68.2802 13.0256 68.033 13.0256ZM75.5597 15.6847L74.1534 15.8381C74.1136 15.696 74.044 15.5625 73.9446 15.4375C73.848 15.3125 73.7173 15.2116 73.5526 15.1349C73.3878 15.0582 73.1861 15.0199 72.9474 15.0199C72.6264 15.0199 72.3565 15.0895 72.1378 15.2287C71.9219 15.3679 71.8153 15.5483 71.8182 15.7699C71.8153 15.9602 71.8849 16.1151 72.027 16.2344C72.1719 16.3537 72.4105 16.4517 72.7429 16.5284L73.8594 16.767C74.4787 16.9006 74.9389 17.1122 75.2401 17.402C75.544 17.6918 75.6974 18.071 75.7003 18.5398C75.6974 18.9517 75.5767 19.3153 75.3381 19.6307C75.1023 19.9432 74.7741 20.1875 74.3537 20.3636C73.9332 20.5398 73.4503 20.6278 72.9048 20.6278C72.1037 20.6278 71.4588 20.4602 70.9702 20.125C70.4815 19.7869 70.1903 19.3168 70.0966 18.7145L71.6009 18.5696C71.669 18.8651 71.8139 19.0881 72.0355 19.2386C72.2571 19.3892 72.5455 19.4645 72.9006 19.4645C73.267 19.4645 73.5611 19.3892 73.7827 19.2386C74.0071 19.0881 74.1193 18.902 74.1193 18.6804C74.1193 18.4929 74.0469 18.3381 73.902 18.2159C73.7599 18.0937 73.5384 18 73.2372 17.9347L72.1207 17.7003C71.4929 17.5696 71.0284 17.3494 70.7273 17.0398C70.4261 16.7273 70.277 16.3324 70.2798 15.8551C70.277 15.4517 70.3864 15.1023 70.608 14.8068C70.8324 14.5085 71.1435 14.2784 71.5412 14.1165C71.9418 13.9517 72.4034 13.8693 72.9261 13.8693C73.6932 13.8693 74.2969 14.0327 74.7372 14.3594C75.1804 14.6861 75.4545 15.1278 75.5597 15.6847ZM77.9311 22.9545C77.7209 22.9545 77.5263 22.9375 77.3473 22.9034C77.1712 22.8722 77.0305 22.8352 76.9254 22.7926L77.2834 21.5909C77.5078 21.6563 77.7081 21.6875 77.8842 21.6847C78.0604 21.6818 78.2152 21.6264 78.3487 21.5185C78.4851 21.4134 78.6001 21.2372 78.6939 20.9901L78.826 20.6364L76.4524 13.9545H78.0888L79.5973 18.8977H79.6655L81.1783 13.9545H82.8189L80.1982 21.2926C80.076 21.6392 79.9141 21.9361 79.7124 22.1832C79.5107 22.4332 79.2635 22.6236 78.9709 22.7543C78.6811 22.8878 78.3345 22.9545 77.9311 22.9545ZM85.429 16.6648V20.5H83.8864V13.9545H85.3608V15.0668H85.4375C85.5881 14.7003 85.8281 14.4091 86.1577 14.1932C86.4901 13.9773 86.9006 13.8693 87.3892 13.8693C87.8409 13.8693 88.2344 13.9659 88.5696 14.1591C88.9077 14.3523 89.169 14.6321 89.3537 14.9986C89.5412 15.3651 89.6335 15.8097 89.6307 16.3324V20.5H88.0881V16.571C88.0881 16.1335 87.9744 15.7912 87.7472 15.544C87.5227 15.2969 87.2116 15.1733 86.8139 15.1733C86.544 15.1733 86.304 15.233 86.0938 15.3523C85.8864 15.4687 85.723 15.6378 85.6037 15.8594C85.4872 16.081 85.429 16.3494 85.429 16.6648ZM94.054 20.6278C93.4006 20.6278 92.8395 20.4844 92.3707 20.1974C91.9048 19.9105 91.5455 19.5142 91.2926 19.0085C91.0426 18.5 90.9176 17.9148 90.9176 17.2528C90.9176 16.5881 91.0455 16.0014 91.3011 15.4929C91.5568 14.9815 91.9176 14.5838 92.3835 14.2997C92.8523 14.0128 93.4063 13.8693 94.0455 13.8693C94.5767 13.8693 95.0469 13.9673 95.456 14.1634C95.8679 14.3565 96.196 14.6307 96.4403 14.9858C96.6847 15.3381 96.8239 15.75 96.858 16.2216H95.3835C95.3239 15.9062 95.1818 15.6435 94.9574 15.4332C94.7358 15.2202 94.4389 15.1136 94.0668 15.1136C93.7514 15.1136 93.4744 15.1989 93.2358 15.3693C92.9972 15.5369 92.8111 15.7784 92.6776 16.0938C92.5469 16.4091 92.4815 16.7869 92.4815 17.2273C92.4815 17.6733 92.5469 18.0568 92.6776 18.3778C92.8082 18.696 92.9915 18.9418 93.2273 19.1151C93.4659 19.2855 93.7457 19.3707 94.0668 19.3707C94.294 19.3707 94.4972 19.3281 94.6761 19.2429C94.858 19.1548 95.0099 19.0284 95.1321 18.8636C95.2543 18.6989 95.3381 18.4986 95.3835 18.2628H96.858C96.821 18.7259 96.6847 19.1364 96.4489 19.4943C96.2131 19.8494 95.892 20.1278 95.4858 20.3295C95.0795 20.5284 94.6023 20.6278 94.054 20.6278ZM99.3136 20.5H97.6261L100.699 11.7727H102.65L105.727 20.5H104.039L101.708 13.5625H101.64L99.3136 20.5ZM99.369 17.0781H103.971V18.348H99.369V17.0781ZM108.457 11.7727V20.5H106.876V11.7727H108.457Z" fill="white"/>
</svg>
