<svg width="110" height="26" viewBox="0 0 110 26" fill="none" xmlns="http://www.w3.org/2000/svg">
<path d="M13.4062 2.4375C10.7143 2.44287 8.13413 3.51462 6.23063 5.41813C4.32712 7.32163 3.25537 9.90179 3.25 12.5938V21.1555C3.25 21.5784 3.41799 21.9839 3.71703 22.283C4.01606 22.582 4.42164 22.75 4.84453 22.75H13.4062C16.0999 22.75 18.6831 21.68 20.5878 19.7753C22.4925 17.8706 23.5625 15.2874 23.5625 12.5938C23.5625 9.90015 22.4925 7.31686 20.5878 5.4122C18.6831 3.50753 16.0999 2.4375 13.4062 2.4375V2.4375ZM8.53125 14.2188C8.2902 14.2188 8.05457 14.1473 7.85415 14.0134C7.65373 13.8794 7.49752 13.6891 7.40527 13.4664C7.31303 13.2437 7.28889 12.9986 7.33592 12.7622C7.38294 12.5258 7.49902 12.3087 7.66946 12.1382C7.83991 11.9678 8.05707 11.8517 8.29348 11.8047C8.5299 11.7576 8.77495 11.7818 8.99765 11.874C9.22034 11.9663 9.41069 12.1225 9.5446 12.3229C9.67852 12.5233 9.75 12.759 9.75 13C9.75 13.3232 9.6216 13.6332 9.39304 13.8618C9.16448 14.0903 8.85448 14.2188 8.53125 14.2188ZM13.4062 14.2188C13.1652 14.2188 12.9296 14.1473 12.7291 14.0134C12.5287 13.8794 12.3725 13.6891 12.2803 13.4664C12.188 13.2437 12.1639 12.9986 12.2109 12.7622C12.2579 12.5258 12.374 12.3087 12.5445 12.1382C12.7149 11.9678 12.9321 11.8517 13.1685 11.8047C13.4049 11.7576 13.6499 11.7818 13.8726 11.874C14.0953 11.9663 14.2857 12.1225 14.4196 12.3229C14.5535 12.5233 14.625 12.759 14.625 13C14.625 13.3232 14.4966 13.6332 14.268 13.8618C14.0395 14.0903 13.7295 14.2188 13.4062 14.2188ZM18.2812 14.2188C18.0402 14.2188 17.8046 14.1473 17.6041 14.0134C17.4037 13.8794 17.2475 13.6891 17.1553 13.4664C17.063 13.2437 17.0389 12.9986 17.0859 12.7622C17.1329 12.5258 17.249 12.3087 17.4195 12.1382C17.5899 11.9678 17.8071 11.8517 18.0435 11.8047C18.2799 11.7576 18.5249 11.7818 18.7476 11.874C18.9703 11.9663 19.1607 12.1225 19.2946 12.3229C19.4285 12.5233 19.5 12.759 19.5 13C19.5 13.3232 19.3716 13.6332 19.143 13.8618C18.9145 14.0903 18.6045 14.2188 18.2812 14.2188Z" fill="#6366F1"/>
<path d="M13.4062 14.2188C14.0793 14.2188 14.625 13.6731 14.625 13C14.625 12.3269 14.0793 11.7812 13.4062 11.7812C12.7332 11.7812 12.1875 12.3269 12.1875 13C12.1875 13.6731 12.7332 14.2188 13.4062 14.2188Z" fill="white"/>
<path d="M8.53125 14.2188C9.20435 14.2188 9.75 13.6731 9.75 13C9.75 12.3269 9.20435 11.7812 8.53125 11.7812C7.85815 11.7812 7.3125 12.3269 7.3125 13C7.3125 13.6731 7.85815 14.2188 8.53125 14.2188Z" fill="white"/>
<path d="M18.2812 14.2188C18.9543 14.2188 19.5 13.6731 19.5 13C19.5 12.3269 18.9543 11.7812 18.2812 11.7812C17.6082 11.7812 17.0625 12.3269 17.0625 13C17.0625 13.6731 17.6082 14.2188 18.2812 14.2188Z" fill="white"/>
<path d="M34.4418 8.77273V17.5H32.8608V8.77273H34.4418ZM37.6282 13.6648V17.5H36.0856V10.9545H37.56V12.0668H37.6367C37.7873 11.7003 38.0273 11.4091 38.3569 11.1932C38.6893 10.9773 39.0998 10.8693 39.5884 10.8693C40.0401 10.8693 40.4336 10.9659 40.7688 11.1591C41.1069 11.3523 41.3683 11.6321 41.5529 11.9986C41.7404 12.3651 41.8327 12.8097 41.8299 13.3324V17.5H40.2873V13.571C40.2873 13.1335 40.1737 12.7912 39.9464 12.544C39.7219 12.2969 39.4109 12.1733 39.0131 12.1733C38.7433 12.1733 38.5032 12.233 38.293 12.3523C38.0856 12.4687 37.9222 12.6378 37.8029 12.8594C37.6864 13.081 37.6282 13.3494 37.6282 13.6648ZM46.6665 10.9545V12.1477H42.9038V10.9545H46.6665ZM43.8327 9.38636H45.3754V15.5312C45.3754 15.7386 45.4066 15.8977 45.4691 16.0085C45.5344 16.1165 45.6197 16.1903 45.7248 16.2301C45.8299 16.2699 45.9464 16.2898 46.0742 16.2898C46.1708 16.2898 46.2589 16.2827 46.3384 16.2685C46.4208 16.2543 46.4833 16.2415 46.5259 16.2301L46.7859 17.4361C46.7035 17.4645 46.5856 17.4957 46.4322 17.5298C46.2816 17.5639 46.0969 17.5838 45.8782 17.5895C45.4918 17.6009 45.1438 17.5426 44.8342 17.4148C44.5245 17.2841 44.2788 17.0824 44.0969 16.8097C43.918 16.5369 43.8299 16.196 43.8327 15.7869V9.38636ZM50.7841 17.6278C50.1278 17.6278 49.5611 17.4915 49.0838 17.2188C48.6094 16.9432 48.2443 16.554 47.9886 16.0511C47.733 15.5455 47.6051 14.9503 47.6051 14.2656C47.6051 13.5923 47.733 13.0014 47.9886 12.4929C48.2472 11.9815 48.608 11.5838 49.071 11.2997C49.5341 11.0128 50.0781 10.8693 50.7031 10.8693C51.1065 10.8693 51.4872 10.9347 51.8452 11.0653C52.206 11.1932 52.5241 11.392 52.7997 11.6619C53.0781 11.9318 53.2969 12.2756 53.456 12.6932C53.6151 13.108 53.6946 13.6023 53.6946 14.1761V14.6491H48.3295V13.6094H52.2159C52.2131 13.3139 52.1491 13.0511 52.0241 12.821C51.8991 12.5881 51.7244 12.4048 51.5 12.2713C51.2784 12.1378 51.0199 12.071 50.7244 12.071C50.4091 12.071 50.1321 12.1477 49.8935 12.3011C49.6548 12.4517 49.4688 12.6506 49.3352 12.8977C49.2045 13.142 49.1378 13.4105 49.1349 13.7031V14.6108C49.1349 14.9915 49.2045 15.3182 49.3438 15.5909C49.483 15.8608 49.6776 16.0682 49.9276 16.2131C50.1776 16.3551 50.4702 16.4261 50.8054 16.4261C51.0298 16.4261 51.233 16.3949 51.4148 16.3324C51.5966 16.267 51.7543 16.1719 51.8878 16.0469C52.0213 15.9219 52.1222 15.767 52.1903 15.5824L53.6307 15.7443C53.5398 16.125 53.3665 16.4574 53.1108 16.7415C52.858 17.0227 52.5341 17.2415 52.1392 17.3977C51.7443 17.5511 51.2926 17.6278 50.7841 17.6278ZM56.5423 8.77273V17.5H54.9996V8.77273H56.5423ZM59.6712 8.77273V17.5H58.1286V8.77273H59.6712ZM61.2575 17.5V10.9545H62.8001V17.5H61.2575ZM62.033 10.0256C61.7887 10.0256 61.5785 9.9446 61.4023 9.78267C61.2262 9.6179 61.1381 9.42045 61.1381 9.19034C61.1381 8.95739 61.2262 8.75994 61.4023 8.59801C61.5785 8.43324 61.7887 8.35085 62.033 8.35085C62.2802 8.35085 62.4904 8.43324 62.6637 8.59801C62.8398 8.75994 62.9279 8.95739 62.9279 9.19034C62.9279 9.42045 62.8398 9.6179 62.6637 9.78267C62.4904 9.9446 62.2802 10.0256 62.033 10.0256ZM69.5597 12.6847L68.1534 12.8381C68.1136 12.696 68.044 12.5625 67.9446 12.4375C67.848 12.3125 67.7173 12.2116 67.5526 12.1349C67.3878 12.0582 67.1861 12.0199 66.9474 12.0199C66.6264 12.0199 66.3565 12.0895 66.1378 12.2287C65.9219 12.3679 65.8153 12.5483 65.8182 12.7699C65.8153 12.9602 65.8849 13.1151 66.027 13.2344C66.1719 13.3537 66.4105 13.4517 66.7429 13.5284L67.8594 13.767C68.4787 13.9006 68.9389 14.1122 69.2401 14.402C69.544 14.6918 69.6974 15.071 69.7003 15.5398C69.6974 15.9517 69.5767 16.3153 69.3381 16.6307C69.1023 16.9432 68.7741 17.1875 68.3537 17.3636C67.9332 17.5398 67.4503 17.6278 66.9048 17.6278C66.1037 17.6278 65.4588 17.4602 64.9702 17.125C64.4815 16.7869 64.1903 16.3168 64.0966 15.7145L65.6009 15.5696C65.669 15.8651 65.8139 16.0881 66.0355 16.2386C66.2571 16.3892 66.5455 16.4645 66.9006 16.4645C67.267 16.4645 67.5611 16.3892 67.7827 16.2386C68.0071 16.0881 68.1193 15.902 68.1193 15.6804C68.1193 15.4929 68.0469 15.3381 67.902 15.2159C67.7599 15.0937 67.5384 15 67.2372 14.9347L66.1207 14.7003C65.4929 14.5696 65.0284 14.3494 64.7273 14.0398C64.4261 13.7273 64.277 13.3324 64.2798 12.8551C64.277 12.4517 64.3864 12.1023 64.608 11.8068C64.8324 11.5085 65.1435 11.2784 65.5412 11.1165C65.9418 10.9517 66.4034 10.8693 66.9261 10.8693C67.6932 10.8693 68.2969 11.0327 68.7372 11.3594C69.1804 11.6861 69.4545 12.1278 69.5597 12.6847ZM71.9311 19.9545C71.7209 19.9545 71.5263 19.9375 71.3473 19.9034C71.1712 19.8722 71.0305 19.8352 70.9254 19.7926L71.2834 18.5909C71.5078 18.6563 71.7081 18.6875 71.8842 18.6847C72.0604 18.6818 72.2152 18.6264 72.3487 18.5185C72.4851 18.4134 72.6001 18.2372 72.6939 17.9901L72.826 17.6364L70.4524 10.9545H72.0888L73.5973 15.8977H73.6655L75.1783 10.9545H76.8189L74.1982 18.2926C74.076 18.6392 73.9141 18.9361 73.7124 19.1832C73.5107 19.4332 73.2635 19.6236 72.9709 19.7543C72.6811 19.8878 72.3345 19.9545 71.9311 19.9545ZM79.429 13.6648V17.5H77.8864V10.9545H79.3608V12.0668H79.4375C79.5881 11.7003 79.8281 11.4091 80.1577 11.1932C80.4901 10.9773 80.9006 10.8693 81.3892 10.8693C81.8409 10.8693 82.2344 10.9659 82.5696 11.1591C82.9077 11.3523 83.169 11.6321 83.3537 11.9986C83.5412 12.3651 83.6335 12.8097 83.6307 13.3324V17.5H82.0881V13.571C82.0881 13.1335 81.9744 12.7912 81.7472 12.544C81.5227 12.2969 81.2116 12.1733 80.8139 12.1733C80.544 12.1733 80.304 12.233 80.0938 12.3523C79.8864 12.4687 79.723 12.6378 79.6037 12.8594C79.4872 13.081 79.429 13.3494 79.429 13.6648ZM88.054 17.6278C87.4006 17.6278 86.8395 17.4844 86.3707 17.1974C85.9048 16.9105 85.5455 16.5142 85.2926 16.0085C85.0426 15.5 84.9176 14.9148 84.9176 14.2528C84.9176 13.5881 85.0455 13.0014 85.3011 12.4929C85.5568 11.9815 85.9176 11.5838 86.3835 11.2997C86.8523 11.0128 87.4063 10.8693 88.0455 10.8693C88.5767 10.8693 89.0469 10.9673 89.456 11.1634C89.8679 11.3565 90.196 11.6307 90.4403 11.9858C90.6847 12.3381 90.8239 12.75 90.858 13.2216H89.3835C89.3239 12.9062 89.1818 12.6435 88.9574 12.4332C88.7358 12.2202 88.4389 12.1136 88.0668 12.1136C87.7514 12.1136 87.4744 12.1989 87.2358 12.3693C86.9972 12.5369 86.8111 12.7784 86.6776 13.0938C86.5469 13.4091 86.4815 13.7869 86.4815 14.2273C86.4815 14.6733 86.5469 15.0568 86.6776 15.3778C86.8082 15.696 86.9915 15.9418 87.2273 16.1151C87.4659 16.2855 87.7457 16.3707 88.0668 16.3707C88.294 16.3707 88.4972 16.3281 88.6761 16.2429C88.858 16.1548 89.0099 16.0284 89.1321 15.8636C89.2543 15.6989 89.3381 15.4986 89.3835 15.2628H90.858C90.821 15.7259 90.6847 16.1364 90.4489 16.4943C90.2131 16.8494 89.892 17.1278 89.4858 17.3295C89.0795 17.5284 88.6023 17.6278 88.054 17.6278ZM93.3136 17.5H91.6261L94.6985 8.77273H96.6502L99.7269 17.5H98.0394L95.7085 10.5625H95.6403L93.3136 17.5ZM93.369 14.0781H97.9712V15.348H93.369V14.0781ZM102.457 8.77273V17.5H100.876V8.77273H102.457Z" fill="white"/>
</svg>
